<svg width="100" height="100" viewBox="0 0 100 100" fill="none" xmlns="http://www.w3.org/2000/svg">
<g clip-path="url(#clip0)">
<rect x="48" y="48" width="4" height="4" fill="#810000"/>
<circle cx="50" cy="50" r="50" fill="#C4C4C4"/>
<path d="M42.4057 53.033L21.194 46.6293L24.4662 36.0237L45.6724 43.9743L45.1258 19.7847L55.8835 19.823L55.0929 44.3595L76.0032 36.6995L79.1994 47.3985L57.5908 53.72L71.4447 72.8241L62.7025 79.4024L49.6966 59.1059L36.97 78.8185L28.2038 72.3888L42.4057 53.033Z" fill="#A9A9A9"/>
<path d="M42.4057 53.033L43.212 53.6246L44.0485 52.4844L42.6947 52.0757L42.4057 53.033ZM21.194 46.6293L20.2385 46.3345L19.9418 47.2958L20.905 47.5866L21.194 46.6293ZM24.4662 36.0237L24.8173 35.0873L23.8235 34.7148L23.5106 35.7289L24.4662 36.0237ZM45.6724 43.9743L45.3213 44.9107L46.7055 45.4296L46.6721 43.9517L45.6724 43.9743ZM45.1258 19.7847L45.1293 18.7847L44.1028 18.7811L44.126 19.8073L45.1258 19.7847ZM55.8835 19.823L56.883 19.8553L56.9161 18.8267L55.8871 18.8231L55.8835 19.823ZM55.0929 44.3595L54.0935 44.3272L54.0457 45.808L55.4369 45.2984L55.0929 44.3595ZM76.0032 36.6995L76.9613 36.4133L76.6571 35.395L75.6592 35.7606L76.0032 36.6995ZM79.1994 47.3985L79.4802 48.3583L80.4455 48.0759L80.1576 47.1122L79.1994 47.3985ZM57.5908 53.72L57.3101 52.7602L55.9484 53.1585L56.7813 54.307L57.5908 53.72ZM71.4447 72.8241L72.046 73.6232L72.8311 73.0325L72.2543 72.2371L71.4447 72.8241ZM62.7025 79.4024L61.8605 79.9419L62.4422 80.8497L63.3038 80.2015L62.7025 79.4024ZM49.6966 59.1059L50.5386 58.5664L49.6997 57.2574L48.8565 58.5635L49.6966 59.1059ZM36.97 78.8185L36.3786 79.6249L37.2345 80.2526L37.8102 79.3609L36.97 78.8185ZM28.2038 72.3888L27.3976 71.7972L26.8059 72.6036L27.6124 73.1952L28.2038 72.3888ZM42.6947 52.0757L21.483 45.672L20.905 47.5866L42.1167 53.9904L42.6947 52.0757ZM22.1496 46.9241L25.4217 36.3185L23.5106 35.7289L20.2385 46.3345L22.1496 46.9241ZM24.1151 36.9601L45.3213 44.9107L46.0234 43.038L24.8173 35.0873L24.1151 36.9601ZM46.6721 43.9517L46.1255 19.7621L44.126 19.8073L44.6726 43.9969L46.6721 43.9517ZM45.1222 20.7847L55.8799 20.823L55.8871 18.8231L45.1293 18.7847L45.1222 20.7847ZM54.884 19.7908L54.0935 44.3272L56.0924 44.3917L56.883 19.8553L54.884 19.7908ZM55.4369 45.2984L76.3471 37.6385L75.6592 35.7606L54.749 43.4205L55.4369 45.2984ZM75.045 36.9858L78.2413 47.6847L80.1576 47.1122L76.9613 36.4133L75.045 36.9858ZM78.9187 46.4387L57.3101 52.7602L57.8716 54.6797L79.4802 48.3583L78.9187 46.4387ZM56.7813 54.307L70.6352 73.4112L72.2543 72.2371L58.4004 53.1329L56.7813 54.307ZM70.8435 72.0251L62.1012 78.6034L63.3038 80.2015L72.046 73.6232L70.8435 72.0251ZM63.5445 78.8629L50.5386 58.5664L48.8546 59.6455L61.8605 79.9419L63.5445 78.8629ZM48.8565 58.5635L36.1299 78.2761L37.8102 79.3609L50.5367 59.6483L48.8565 58.5635ZM37.5615 78.0122L28.7953 71.5825L27.6124 73.1952L36.3786 79.6249L37.5615 78.0122ZM29.0101 72.9804L43.212 53.6246L41.5994 52.4415L27.3976 71.7972L29.0101 72.9804Z" fill="black"/>
</g>
<defs>
<clipPath id="clip0">
<rect width="100" height="100" fill="white"/>
</clipPath>
</defs>
</svg>
